<svg id="レイヤー_1" data-name="レイヤー 1" xmlns="http://www.w3.org/2000/svg" xmlns:xlink="http://www.w3.org/1999/xlink" viewBox="0 0 391.79 287.47"><defs><style>.cls-1{fill:none;}.cls-2{clip-path:url(#clip-path);}.cls-3{fill:#a0578c;fill-rule:evenodd;}.cls-4{fill:#fff;}.cls-5{fill:#040000;}.cls-6{fill:#08bf5b;}</style><clipPath id="clip-path" transform="translate(-3.76 -49.35)"><rect class="cls-1" x="19.18" y="264.07" width="361.01" height="72.75"/></clipPath></defs><title>linepay-wc-icon</title><g class="cls-2"><path class="cls-3" d="M30.51,264.07h99.55a11.39,11.39,0,0,1,11.39,11.39v38a11.39,11.39,0,0,1-11.39,11.39H94.36l4.88,12-21.56-12H30.51a11.39,11.39,0,0,1-11.39-11.39v-38a11.39,11.39,0,0,1,11.39-11.39Z" transform="translate(-3.76 -49.35)"/></g><path class="cls-4" d="M25.28,274.38a4.12,4.12,0,0,1,3.13-1.54q3.79-.27,4.37,3.59,2.34,15.65,5,26.55l11-20.84q1.48-2.82,3.75-3,3.3-.22,4.12,4.2a93.1,93.1,0,0,0,4.74,17.09q2-19,6.59-27.52a3.87,3.87,0,0,1,3.3-2.22,4.41,4.41,0,0,1,3.15,1A3.85,3.85,0,0,1,76,274.56a4.26,4.26,0,0,1-.49,2.39q-2.92,5.43-4.83,18.06-1.86,12.19-1.38,19.07a6,6,0,0,1-.58,3.27A3.16,3.16,0,0,1,66,319.16a5.16,5.16,0,0,1-4-1.86Q55.08,310.15,51,296q-4.83,9.6-7.22,14.4-4.4,8.47-7.54,8.69-2.05.15-3.48-3.43-3.86-9.79-8.26-37.94a4.29,4.29,0,0,1,.79-3.37Z" transform="translate(-3.76 -49.35)"/><path class="cls-4" d="M126.43,296.1a13.24,13.24,0,0,1-3.81,7.41c-1.47,1.32-2.81,1.86-4,1.61s-2.2-1.32-2.93-3.22a12.91,12.91,0,0,1-.88-4.55,17.57,17.57,0,0,1,.37-3.67,16.51,16.51,0,0,1,2.64-5.94c1.66-2.45,3.39-3.47,5.2-3.08q1.84.36,2.94,3.23a12.82,12.82,0,0,1,.88,4.54,17.5,17.5,0,0,1-.37,3.67Zm6.31-13.86a11.61,11.61,0,0,0-8-5.8,13.52,13.52,0,0,0-2.71-.29q-7.19,0-11.73,7.48a26.49,26.49,0,0,0-3.89,14.08,19.23,19.23,0,0,0,2.42,9.91,11.56,11.56,0,0,0,8,5.79,13.44,13.44,0,0,0,2.71.29q7.26,0,11.73-7.48a26.93,26.93,0,0,0,3.89-14.15,18.83,18.83,0,0,0-2.42-9.83Z" transform="translate(-3.76 -49.35)"/><path class="cls-4" d="M95.1,296.1a13.31,13.31,0,0,1-3.81,7.41q-2.21,2-4,1.61c-1.22-.24-2.2-1.32-2.93-3.22a12.91,12.91,0,0,1-.88-4.55,17.57,17.57,0,0,1,.37-3.67,16.66,16.66,0,0,1,2.63-5.94c1.67-2.45,3.4-3.47,5.21-3.08,1.23.24,2.2,1.32,2.94,3.23a13,13,0,0,1,.88,4.54,18.2,18.2,0,0,1-.37,3.67Zm6.31-13.86a11.63,11.63,0,0,0-8-5.8,13.52,13.52,0,0,0-2.71-.29q-7.19,0-11.73,7.48a26.49,26.49,0,0,0-3.89,14.08,19.23,19.23,0,0,0,2.42,9.91,11.57,11.57,0,0,0,8,5.79,13.61,13.61,0,0,0,2.72.29q7.26,0,11.73-7.48a26.93,26.93,0,0,0,3.89-14.15,18.83,18.83,0,0,0-2.42-9.83Z" transform="translate(-3.76 -49.35)"/><path class="cls-5" d="M370.72,304.57v-6.2h8.17v-7.06h-8.17V285h9.41v-7.25h-18.6v34h18.66v-7.26Zm-29.84-22.76a17,17,0,0,0-5,12.58q0,8.22,5,13.25t12.95,5a20,20,0,0,0,5.22-.79V303.8a16.55,16.55,0,0,1-4.55.77,8.09,8.09,0,0,1-6.36-2.67,10.46,10.46,0,0,1-2.38-7.25,10.34,10.34,0,0,1,2.36-7,7.51,7.51,0,0,1,5.95-2.76,18.61,18.61,0,0,1,5,.74v-8.11a21.28,21.28,0,0,0-5.46-.66,17.24,17.24,0,0,0-12.66,5Zm-21,10.65v-8.09a8.59,8.59,0,0,1,4.69,1.1,3.9,3.9,0,0,1,1.41,3.39c0,2.33-2,3.53-6.1,3.6ZM334,293a9.25,9.25,0,0,0-2.34-12.4q-3.76-2.81-10.26-2.81H310.7v34h9.2v-15.5h.15l7.43,15.5h9.71l-7.34-15.35A8.8,8.8,0,0,0,334,293Zm-35.37,5.37h8.16v-7.06h-8.16V285h9.41v-7.25H289.44v34h18.67v-7.26h-9.47v-6.2Zm-28.27-20.58-1.79,7.65c-.46,2-.9,4-1.3,6l-1,5.28q-1.44-7.94-3.92-18.95H250.74l-4.37,34h8.71l2.36-23.45,5.95,23.45h6.22l5.68-23.4,2.46,23.4h9.1l-4.61-34Zm-41.65,0-1.79,7.65c-.47,2-.9,4-1.3,6l-1,5.28q-1.43-7.94-3.91-18.95H209.09l-4.38,34h8.71l2.37-23.45,6,23.45H228l5.68-23.4,2.46,23.4h9.1l-4.61-34Zm-36,25a4.45,4.45,0,0,1-4,2.12,4,4,0,0,1-3.66-2.12q-1.26-2.11-1.26-8.44,0-9.81,5-9.81,5.28,0,5.28,10,0,6.17-1.38,8.28Zm-4-26q-6.92,0-10.79,4.6t-3.87,12.84q0,8.93,3.86,13.66c2.56,3.15,6.3,4.72,11.19,4.72s8.38-1.57,10.94-4.72,3.84-7.59,3.84-13.3-1.3-10.11-3.9-13.18-6.35-4.62-11.27-4.62Zm-34.7,5a17,17,0,0,0-5,12.58q0,8.22,5,13.25t12.94,5a20,20,0,0,0,5.22-.79V303.8a16.55,16.55,0,0,1-4.55.77,8.11,8.11,0,0,1-6.36-2.67,11.91,11.91,0,0,1,0-14.26,7.51,7.51,0,0,1,6-2.76,18.61,18.61,0,0,1,5,.74v-8.11a21.28,21.28,0,0,0-5.46-.66,17.24,17.24,0,0,0-12.66,5Z" transform="translate(-3.76 -49.35)"/><rect x="51.38" y="24.79" width="14.83" height="64.62" rx="2.65"/><path d="M44.28,123.93H18.59V76.79A2.64,2.64,0,0,0,16,74.14H6.41a2.65,2.65,0,0,0-2.65,2.65v59.32a2.65,2.65,0,0,0,2.65,2.65H44.28a2.65,2.65,0,0,0,2.65-2.65v-9.53A2.64,2.64,0,0,0,44.28,123.93Z" transform="translate(-3.76 -49.35)"/><path d="M186,89a2.65,2.65,0,0,0,2.65-2.65V76.79A2.64,2.64,0,0,0,186,74.14H148.1a2.65,2.65,0,0,0-2.65,2.65v59.32a2.65,2.65,0,0,0,2.65,2.65H186a2.65,2.65,0,0,0,2.65-2.65v-9.53a2.64,2.64,0,0,0-2.65-2.65H160.29V113.86H186a2.64,2.64,0,0,0,2.65-2.64v-9.54A2.65,2.65,0,0,0,186,99H160.29V89Z" transform="translate(-3.76 -49.35)"/><path d="M132.74,74.14h-9.53a2.64,2.64,0,0,0-2.65,2.65v34.32l-25-35.67a3.3,3.3,0,0,0-2.94-1.3,2.25,2.25,0,0,0-.45,0H82.69A2.64,2.64,0,0,0,80,76.79v59.32a2.65,2.65,0,0,0,2.65,2.65h9.53a2.65,2.65,0,0,0,2.65-2.65V100.26l26,37.19a2.89,2.89,0,0,0,.31.37,2.65,2.65,0,0,0,1.83.94h9.72a2.65,2.65,0,0,0,2.65-2.65V76.79A2.65,2.65,0,0,0,132.74,74.14Z" transform="translate(-3.76 -49.35)"/><rect class="cls-6" x="209.76" width="182.03" height="114.18" rx="6.62"/><path class="cls-4" d="M279.15,93.88A18.14,18.14,0,0,1,260.67,112h-7.92V126.8a1.77,1.77,0,0,1-1.77,1.77h-8.52a1.78,1.78,0,0,1-1.78-1.77V77.55a1.78,1.78,0,0,1,1.78-1.77h18.21A18.14,18.14,0,0,1,279.15,93.88Zm-12.07,0a6.45,6.45,0,0,0-6.41-6.79h-7.92v13.58h7.92A6.45,6.45,0,0,0,267.08,93.88Z" transform="translate(-3.76 -49.35)"/><path class="cls-4" d="M324,91.8v35.84a.94.94,0,0,1-.94.93h-9.44a.94.94,0,0,1-.94-.93V125c-2.48,2.86-6.18,4.6-11.23,4.6-9.88,0-18-8.68-18-19.91s8.15-19.91,18-19.91c5,0,8.75,1.73,11.23,4.6V91.8a.94.94,0,0,1,.94-.94H323A.94.94,0,0,1,324,91.8Zm-11.32,17.92c0-5.66-3.77-9.2-9-9.2s-9,3.54-9,9.2,3.78,9.2,9,9.2S312.64,115.37,312.64,109.72Z" transform="translate(-3.76 -49.35)"/><path class="cls-4" d="M361.6,91.85l-8.68,21.87-9-21.89a1.56,1.56,0,0,0-1.45-1h-9.62a.94.94,0,0,0-.87,1.29l15,36.52-5.46,13.75a.94.94,0,0,0,.87,1.28H352a1.56,1.56,0,0,0,1.45-1l20.07-50.57a.93.93,0,0,0-.87-1.28h-9.63A1.56,1.56,0,0,0,361.6,91.85Z" transform="translate(-3.76 -49.35)"/><path d="M153.47,227.85v-21.6h-3.81v-7.92h3.81v-1c0-3.28,1.14-7.26,3.82-9.7a12.69,12.69,0,0,1,8.59-3,21.43,21.43,0,0,1,5,.53l-.22,8.28a11.13,11.13,0,0,0-2.76-.32,3.52,3.52,0,0,0-3.67,3.8v1.45h5.38v7.92h-5.3v21.6Z" transform="translate(-3.76 -49.35)"/><path d="M204.09,212.79c0,10.73-7.67,15.72-15.93,15.72-8.84,0-15.69-5.61-15.69-15.21,0-9.37,6.19-15.63,16.24-15.63C198,197.67,204.09,203.91,204.09,212.79Zm-20.46.29c0,4.42,1.45,7.8,4.8,7.8,2.91,0,4.5-3.06,4.5-7.8,0-4.08-1.32-7.77-4.53-7.77C184.84,205.31,183.63,209.22,183.63,213.08Z" transform="translate(-3.76 -49.35)"/><path d="M209.29,208.29c0-4.69-.07-7.5-.24-10h9.24l.39,5.33h.24a8.5,8.5,0,0,1,7.86-6,8.89,8.89,0,0,1,2.16.18V208a12.16,12.16,0,0,0-2.76-.3c-3.19,0-5.34,1.33-5.91,3.72a9.91,9.91,0,0,0-.15,1.84v14.58H209.29Z" transform="translate(-3.76 -49.35)"/></svg>